<svg xmlns="http://www.w3.org/2000/svg" viewBox="0 0 200 200"><path d="M67.94 158.42C26.6 142.57 14.5 112.5 38.65 76.78c25.08-37.07 73.48-52.14 118.13-31.2 31.4 14.73 39.82 46.74 23 86.43-21.56 50.93-71.6 41.85-111.85 26.4l.01.01z" fill="#F0F4FF"/><path d="M123.07 136.14h50.18a4.41 4.41 0 0 0 4.4-4.4V49.6a4.41 4.41 0 0 0-4.4-4.4H71.5a4.41 4.41 0 0 0-4.4 4.4v42.85a1.52 1.52 0 0 1-.34.96l55.08 43.34c.28-.36.72-.6 1.22-.6l.01-.01z" fill="#fff"/><path d="M173.24 139.25h-50.18c-.86 0-1.55-.7-1.55-1.55a1.57 1.57 0 0 1 1.55-1.55h50.18c2.43-.01 4.4-1.97 4.4-4.4V49.6c-.01-2.43-1.97-4.4-4.4-4.4H71.5c-2.43.01-4.4 1.97-4.4 4.4v42.85c0 .86-.7 1.55-1.55 1.55A1.56 1.56 0 0 1 64 92.44V49.6c.01-4.14 3.36-7.5 7.5-7.5h101.74c4.14.01 7.5 3.36 7.5 7.5v82.16c0 4.14-3.36 7.5-7.5 7.5v-.01zM122.1 87.9V75.4a.96.96 0 0 0-.96-.96H116c-.92 0-1.32-1.16-.6-1.72l11.98-9.42a.95.95 0 0 1 1.19 0l11.98 9.42c.72.57.32 1.72-.6 1.72H135a.96.96 0 0 0-.96.96v31.9c0 1.05-1.4 1.4-1.9.47l-9.7-18.46c-.23-.44-.35-.92-.35-1.42l.01.01zM75.75 70.4c-.86 0-1.55-.7-1.55-1.55V65.2c0-.86.7-1.55 1.55-1.55a1.57 1.57 0 0 1 1.55 1.55v3.65a1.56 1.56 0 0 1-1.55 1.56v-.01zm84.6 60.6h-7.42c-.86 0-1.55-.7-1.55-1.55a1.57 1.57 0 0 1 1.55-1.55h7.42c.86 0 1.55.7 1.55 1.55a1.55 1.55 0 0 1-1.55 1.55zm-14.84 0h-7.42c-.86 0-1.55-.7-1.55-1.55a1.57 1.57 0 0 1 1.55-1.55h7.42c.86 0 1.55.7 1.55 1.55a1.55 1.55 0 0 1-1.55 1.55zm22.12-.75a1.57 1.57 0 0 1-1.32-.73c-.46-.73-.24-1.7.5-2.14 1-.62 1.6-1.7 1.6-2.86v-2.43c0-.86.7-1.55 1.55-1.55a1.57 1.57 0 0 1 1.55 1.55v2.43a6.47 6.47 0 0 1-3.04 5.5c-.25.15-.54.23-.82.23h-.02zm2.3-14.03c-.86 0-1.55-.7-1.55-1.55v-7.42c0-.86.7-1.55 1.55-1.55a1.57 1.57 0 0 1 1.55 1.55v7.42c.01.85-.7 1.55-1.55 1.55zm0-14.84c-.86 0-1.55-.7-1.55-1.55V92.4c0-.86.7-1.55 1.55-1.55a1.57 1.57 0 0 1 1.55 1.55v7.42c.01.85-.7 1.55-1.55 1.55v.01zm0-14.84c-.86 0-1.55-.7-1.55-1.55v-7.42c0-.86.7-1.55 1.55-1.55a1.57 1.57 0 0 1 1.55 1.55V85a1.53 1.53 0 0 1-1.55 1.54zm0-14.84c-.86 0-1.55-.7-1.55-1.55v-7.42c0-.86.7-1.55 1.55-1.55a1.57 1.57 0 0 1 1.55 1.55v7.42c.01.86-.7 1.55-1.55 1.55zM75.77 59.34c-.05 0-.1 0-.14-.01-.85-.08-1.48-.83-1.4-1.7a6.44 6.44 0 0 1 6.45-5.88h.13c.86 0 1.55.7 1.55 1.55a1.57 1.57 0 0 1-1.55 1.55h-.13c-1.75 0-3.2 1.32-3.36 3.06-.07.8-.74 1.4-1.54 1.42l-.01.01zm93.34-2.3c-.5 0-1-.24-1.3-.7-.63-.93-1.68-1.5-2.8-1.5h-2.6c-.86 0-1.55-.7-1.55-1.55a1.57 1.57 0 0 1 1.55-1.55h2.6c2.16 0 4.17 1.07 5.38 2.86a1.56 1.56 0 0 1-.42 2.16c-.27.17-.57.26-.87.26V57.04zM155 54.86h-7.42c-.86 0-1.55-.7-1.55-1.55a1.57 1.57 0 0 1 1.55-1.55H155c.86 0 1.55.7 1.55 1.55a1.55 1.55 0 0 1-1.55 1.55zm-14.84 0h-7.42c-.86 0-1.55-.7-1.55-1.55a1.57 1.57 0 0 1 1.55-1.55h7.42c.86 0 1.55.7 1.55 1.55a1.55 1.55 0 0 1-1.55 1.55zm-14.84 0h-7.42c-.86 0-1.55-.7-1.55-1.55a1.57 1.57 0 0 1 1.55-1.55h7.42c.86 0 1.55.7 1.55 1.55a1.55 1.55 0 0 1-1.55 1.55zm-14.84 0h-7.42c-.86 0-1.55-.7-1.55-1.55a1.57 1.57 0 0 1 1.55-1.55h7.42c.86 0 1.55.7 1.55 1.55a1.55 1.55 0 0 1-1.55 1.55zm-14.83 0h-7.42c-.86 0-1.55-.7-1.55-1.55a1.57 1.57 0 0 1 1.55-1.55h7.42c.86 0 1.55.7 1.55 1.55a1.57 1.57 0 0 1-1.55 1.55zM130.63 131h-3.65c-.86 0-1.55-.7-1.55-1.55a1.57 1.57 0 0 1 1.55-1.55h3.65c.86 0 1.55.7 1.55 1.55s-.7 1.55-1.55 1.55z" fill="#557CF2"/><g fill="#fff"><path d="M58.84 157.76l45 14.1c.45.14.92.1 1.34-.12a1.79 1.79 0 0 0 .86-1.03l18.6-59.3-11.6-3.6c-2.56-.8-4-3.54-3.18-6.1l3.4-10.85-35.2-11c-.45-.14-.92-.1-1.34.12a1.79 1.79 0 0 0-.86 1.03L69 102.87c-.23.75-.98 1.2-1.73 1.06L58.6 157.7c.07.01.15.02.23.05z"/><path d="M13.38 119.3c-.15.3-.17.65-.06.96l14.08 40.7a1.26 1.26 0 0 0 .64.72c.3.15.65.17.96.06l44.2-15.3a1.26 1.26 0 0 0 .72-.64c.15-.3.17-.65.06-.96l-14.1-40.7a1.26 1.26 0 0 0-.64-.72c-.17-.08-.36-.13-.55-.13a1.14 1.14 0 0 0-.41.07l-44.18 15.3c-.3.1-.57.34-.7.64H13.38z"/></g><path d="M68.4 119.28l-5.6-16.15c-.38-1.1-1.18-2-2.22-2.5a4.33 4.33 0 0 0-3.33-.2l-44.18 15.3c-1.1.38-2 1.18-2.5 2.22a4.33 4.33 0 0 0-.2 3.33l14.08 40.7c.38 1.1 1.18 2 2.22 2.5.6.3 1.24.44 1.9.44.48 0 .96-.08 1.43-.24l44.2-15.3c2.27-.8 3.48-3.28 2.7-5.55l-8.5-24.55zm5.5 26.5a1.26 1.26 0 0 1-.72.64L29 161.72c-.3.1-.66.1-.96-.06a1.26 1.26 0 0 1-.64-.72l-14.07-40.7c-.1-.3-.1-.66.06-.96a1.26 1.26 0 0 1 .72-.64l44.2-15.3a1.14 1.14 0 0 1 .41-.07c.2 0 .38.04.55.13a1.26 1.26 0 0 1 .64.72L74 144.82a1.38 1.38 0 0 1-.07.96h-.02z" fill="#557CF2"/><path d="M64.2 136.62l-8.18-23.64c-.22-.64-.82-1.04-1.46-1.04-.17 0-.34.03-.5.08L23 122.77a1.54 1.54 0 0 0-.89.79 1.56 1.56 0 0 0-.07 1.18l7.82 22.6 2.45-16.82c.16-.9.74-1.6 1.57-1.9.8-.3 1.73-.14 2.4.42l8.67 7.26 1.6-5.08c.26-.82.9-1.43 1.75-1.63a2.41 2.41 0 0 1 2.3.66l9.24 9.43-.14.14 3.57-1.24a1.54 1.54 0 0 0 .89-.79 1.53 1.53 0 0 0 .07-1.17h-.02z" fill="#D9E2FF"/><g fill="#557CF2"><circle cx="50.07" cy="120.77" r="3.67"/><path d="M67.07 136.22l-8.55-24.7c-.66-1.9-2.73-2.9-4.63-2.25L21.4 120.5a3.61 3.61 0 0 0-2.08 1.85c-.42.87-.48 1.87-.17 2.78l8.55 24.7a3.61 3.61 0 0 0 1.85 2.08 3.67 3.67 0 0 0 1.59.37c.4 0 .8-.07 1.2-.2l32.48-11.24c1.88-.6 2.9-2.64 2.3-4.52-.01-.04-.03-.08-.04-.1l.01.01zm-2.93 1.58c-.18.37-.5.65-.9.8l-3.57 1.24.14-.14-9.24-9.43c-.6-.62-1.46-.86-2.3-.66-.83.2-1.5.8-1.75 1.63l-1.6 5.08-8.67-7.26c-.66-.56-1.58-.72-2.4-.42-.82.3-1.4 1-1.57 1.9l-2.45 16.82-7.82-22.6c-.14-.4-.1-.8.07-1.18s.5-.65.9-.8l31.08-10.75c.16-.06.33-.08.5-.08.64 0 1.24.4 1.46 1.04l8.18 23.64a1.49 1.49 0 0 1-.07 1.17zm63.56-27.7l-11.36-20.84c-.24-.45-1.77-1.2-2.14-1.32L79 76.9a4.84 4.84 0 0 0-3.71.33c-1.15.6-2 1.62-2.4 2.85l-6.85 21.86a1.55 1.55 0 0 0 1.01 1.95c.83.25 1.7-.2 1.96-1.02L75.86 81a1.79 1.79 0 0 1 .86-1.03c.4-.22.9-.26 1.34-.12l35.2 11-3.4 10.85c-.8 2.56.62 5.28 3.18 6.1l11.6 3.6-18.6 59.3a1.79 1.79 0 0 1-.86 1.03c-.4.22-.9.26-1.34.12l-45-14.1a1.55 1.55 0 0 0-1.95 1.01c-.25.83.2 1.7 1.02 1.96l45 14.1c.47.15.96.23 1.46.23a4.85 4.85 0 0 0 2.24-.55c1.15-.6 2-1.62 2.4-2.85l18.6-59.3c.1-.28.38-1.78.12-2.26l-.03.02zm-14.88-7.45l2.66-8.48 7.33 13.45-8.84-2.77c-.93-.3-1.44-1.28-1.15-2.2zm-35.28 27.9l-5.9-9.72c-.33-.53-.4-1.17-.22-1.76.2-.6.6-1.08 1.2-1.32l10.4-4.58c.5-.23 1.03-.2 1.52-.06a2.17 2.17 0 0 1 1.33 1.15c.2.5.2 1.03.06 1.52-.2.6-.6 1.04-1.2 1.32l-8.18 3.6 4.65 7.62c.32.56.4 1.17.22 1.76-.15.5-.48.93-.92 1.2-.56.32-1.2.4-1.76.22-.5-.15-.93-.48-1.2-.96zm20.3-14.33a1.22 1.22 0 0 1-.16.37l-10.53 19.13c-.48.93-1.53 1.33-2.5 1.02-.13-.04-.26-.1-.38-.16-.93-.48-1.32-1.57-1-2.55a1.22 1.22 0 0 1 .16-.37l10.53-19.13c.48-.93 1.57-1.32 2.5-1.02.13.03.26.1.38.16.93.5 1.32 1.57 1 2.55zm-2.6 19.7c-.2-.5-.2-1.03-.06-1.52.2-.6.6-1.04 1.2-1.32l8.17-3.6-4.65-7.62c-.32-.56-.4-1.17-.22-1.76.15-.5.48-.93.92-1.2.53-.3 1.17-.37 1.75-.18.5.15.94.45 1.2.92l5.9 9.72c.33.53.4 1.17.22 1.76-.18.6-.62 1.08-1.2 1.32L98.08 137a2.13 2.13 0 0 1-1.53.1c-.55-.2-1.03-.6-1.3-1.2z"/></g></svg>